<?xml version="1.0" standalone="no"?>
<!DOCTYPE svg PUBLIC "-//W3C//DTD SVG 20010904//EN"
 "http://www.w3.org/TR/2001/REC-SVG-20010904/DTD/svg10.dtd">
<svg version="1.0" xmlns="http://www.w3.org/2000/svg"
 width="700.000000pt" height="700.000000pt" viewBox="0 0 700.000000 700.000000"
 preserveAspectRatio="xMidYMid meet">
<metadata>
Created by potrace 1.11, written by Peter Selinger 2001-2013
</metadata>
<g transform="translate(0.000000,700.000000) scale(0.100000,-0.100000)"
fill="#000000" stroke="none">
<path d="M3475 5782 c-38 -8 -75 -43 -86 -82 -14 -45 -8 -76 23 -115 20 -25
22 -41 23 -127 l0 -99 -52 -29 c-95 -54 -152 -161 -157 -295 l-2 -66 -86 -38
c-290 -129 -483 -371 -542 -680 -13 -69 -23 -361 -12 -361 3 0 34 15 68 32 35
18 65 33 68 34 3 0 14 4 25 9 11 4 36 14 55 22 43 17 248 69 310 78 25 4 59 9
75 12 59 9 262 19 370 17 151 -3 269 -15 395 -41 41 -8 85 -17 97 -19 50 -9
224 -73 292 -108 39 -20 75 -36 78 -36 3 0 3 80 0 178 -4 152 -9 189 -31 265
-79 264 -257 474 -497 585 -35 17 -76 35 -91 40 -22 9 -26 16 -24 47 9 135
-55 267 -158 325 l-51 29 0 100 c0 77 4 103 16 118 41 46 48 99 21 150 -21 39
-81 65 -127 55z m82 -602 c25 -19 50 -79 56 -136 l4 -41 -111 0 c-61 0 -114 4
-117 10 -20 30 26 156 64 175 48 23 62 22 104 -8z"/>
<path d="M3265 3899 c-205 -25 -399 -76 -520 -136 -85 -43 -183 -112 -240
-171 l-55 -55 0 -219 c0 -124 -4 -218 -9 -218 -5 0 -71 -29 -146 -65 -76 -36
-140 -63 -144 -60 -3 4 -6 65 -6 138 l0 132 -1070 0 -1070 0 -3 -191 -2 -191
90 1 c53 1 91 -3 93 -9 1 -5 2 -377 2 -825 l-1 -816 3315 1 3316 0 2 820 c0
451 1 822 2 825 1 3 42 5 91 5 l90 -1 -2 190 -3 191 -1055 0 c-580 0 -1062 -1
-1071 -3 -14 -3 -16 -21 -15 -125 1 -67 0 -127 -2 -134 -2 -8 -57 14 -153 62
l-149 75 0 209 0 208 -62 62 c-70 71 -187 146 -297 192 -86 36 -269 84 -357
94 -32 4 -63 10 -68 13 -15 9 -427 10 -501 1z m604 -623 c462 -232 665 -336
673 -344 4 -4 -456 -7 -1023 -6 -566 0 -1031 3 -1033 5 -3 2 53 31 122 64 70
33 186 87 257 121 72 33 173 81 225 105 52 24 171 81 265 126 93 45 178 82
189 82 10 1 156 -68 325 -153z m-2938 -473 c0 -10 2 -271 2 -580 2 -557 2
-563 -18 -564 -30 -1 -114 -1 -172 0 l-52 1 0 580 0 580 119 0 c107 0 120 -2
121 -17z m670 9 c5 -35 2 -1136 -2 -1144 -6 -9 -95 -13 -211 -9 l-26 1 0 572
c0 315 2 576 4 579 5 9 234 10 235 1z m4037 -572 l1 -580 -30 -1 c-38 -1 -162
-1 -191 0 l-23 1 2 567 c1 313 2 574 2 581 1 9 32 12 120 12 l119 0 0 -580z
m672 -1 c0 -458 -2 -579 -12 -580 -19 0 -169 -1 -203 0 l-30 1 2 573 c0 314 1
575 2 579 1 4 55 7 120 7 l120 -1 1 -579z m-3619 382 l27 -1 0 -582 0 -583
-141 1 c-78 1 -149 2 -157 3 -13 1 -15 72 -15 578 l0 578 30 5 c25 4 149 5
256 1z m674 -582 l0 -584 -193 0 -192 0 0 582 c0 379 3 582 10 585 6 2 92 3
193 2 l182 -1 0 -584z m628 582 l27 -1 0 -582 0 -583 -192 0 -193 0 -3 582 -2
582 37 3 c32 3 234 2 326 -1z m598 -16 c1 -11 2 -273 3 -582 0 -368 -2 -564
-9 -566 -5 -1 -75 -2 -155 -2 l-145 0 -2 582 -3 582 23 3 c12 2 82 3 154 3
126 0 133 -1 134 -20z"/>
</g>
</svg>
